# xmcd
#
# Track frame offsets: 
#        150
#        29464
#        54325
#        81138
#        104973
#        134564
#        163566
#        189387
#        207479
#        237428
#        261138
#        280441
#        307318
#        331633
#
# Disc length: 4769 seconds
#
# Revision: 1
# Processed by: cddbd v1.5.2PL0 Copyright (c) Steve Scherf et al.
# Submitted via: ExactAudioCopy v1.3
#
DISCID=d4129f0e
DTITLE=Various Artist - Resonate Vol. 5 (mixed by Alphazone)
DYEAR=2006
DGENRE=Hard Trance
TTITLE0=Blueprint (Tara's Theme) - Blueprint (Tara's Theme)
TTITLE1=Lee Haslam - The Future
TTITLE2=Steve Hill vs. Nervous - We Are Alive (Alphazone Remix)
TTITLE3=Carl Nicholson - Devil's Door
TTITLE4=Guyver - Persistence
TTITLE5=Steve Hill vs. Technikal - Strong To Survive
TTITLE6=Euphony - Euphonism
TTITLE7=Colin Barratt - Critical Mass
TTITLE8=Steve Hill - Alone (Technikal's Tidydigital.com Remix)
TTITLE9=Jon The Baptist - Earth (Earth Mix)
TTITLE10=Elegance - Impact
TTITLE11=Cloudchaser - Aerodynamic (Alphazone Remix)
TTITLE12=Bas and Ram - Speed Of Light
TTITLE13=Elegance - Intense (Strong Edit)
EXTD=YEAR: 2006
EXTT0=
EXTT1=
EXTT2=
EXTT3=
EXTT4=
EXTT5=
EXTT6=
EXTT7=
EXTT8=
EXTT9=
EXTT10=
EXTT11=
EXTT12=
EXTT13=
PLAYORDER=
